<?xml version="1.0" standalone="no"?>
<!DOCTYPE svg PUBLIC "-//W3C//DTD SVG 20010904//EN"
 "http://www.w3.org/TR/2001/REC-SVG-20010904/DTD/svg10.dtd">
<svg version="1.0" xmlns="http://www.w3.org/2000/svg"
 width="512.000000pt" height="512.000000pt" viewBox="0 0 512.000000 512.000000"
 preserveAspectRatio="xMidYMid meet">
<metadata>
Created by potrace 1.14, written by Peter Selinger 2001-2017
</metadata>
<g transform="translate(0.000000,512.000000) scale(0.100000,-0.100000)"
fill="#000000" stroke="none">
<path d="M3046 5104 c-14 -14 -16 -82 -16 -602 l0 -587 30 -80 c17 -44 35 -89
40 -100 5 -11 19 -49 31 -85 13 -36 30 -70 39 -77 9 -8 49 -12 101 -13 l86 0
-3 -42 c-3 -57 -14 -236 -19 -318 -9 -160 -18 -298 -20 -335 -2 -22 -6 -96 -9
-165 -4 -69 -9 -143 -11 -165 -2 -22 -7 -94 -10 -160 -3 -66 -8 -147 -10 -180
-2 -33 -7 -103 -10 -155 -8 -135 -15 -256 -20 -320 -4 -58 -18 -305 -19 -352
-1 -21 -6 -28 -22 -28 -33 0 -51 -21 -77 -90 -14 -36 -28 -74 -33 -85 -4 -11
-17 -47 -29 -80 l-22 -60 -82 -5 c-58 -4 -85 -9 -91 -20 -6 -9 -10 -139 -10
-300 l0 -286 -34 -12 c-44 -16 -102 -80 -115 -129 -6 -21 -11 -84 -11 -140 0
-79 3 -105 16 -117 14 -14 136 -16 1194 -16 1072 0 1180 1 1195 16 23 24 20
225 -5 280 -19 45 -79 101 -115 110 l-25 6 0 288 c0 249 -2 291 -16 304 -11
12 -35 16 -88 16 l-73 0 -18 48 c-9 26 -24 62 -32 80 -8 18 -23 58 -34 89 -26
77 -44 101 -76 105 -26 3 -28 7 -29 48 -2 43 -9 170 -19 330 -3 41 -7 116 -10
165 -4 50 -8 115 -10 145 -2 30 -7 111 -11 180 -3 69 -8 145 -10 170 -2 24 -6
94 -9 155 -3 60 -7 130 -9 155 -3 25 -7 101 -11 170 -3 69 -8 148 -10 175 -3
28 -7 93 -10 145 -9 185 -16 305 -19 343 l-3 37 52 0 c65 0 65 0 183 200 l92
156 0 586 c0 520 -2 588 -16 602 -13 13 -46 16 -209 16 -163 0 -196 -3 -209
-16 -14 -13 -16 -50 -16 -250 l0 -234 -100 0 -100 0 0 234 c0 200 -2 237 -16
250 -23 24 -405 24 -428 0 -14 -13 -16 -50 -16 -250 l0 -234 -100 0 -100 0 0
234 c0 200 -2 237 -16 250 -13 13 -46 16 -209 16 -163 0 -196 -3 -209 -16z"/>
<path d="M1099 4501 c-17 -14 -19 -32 -21 -146 l-3 -130 -141 0 c-98 0 -146
-4 -157 -13 -8 -7 -39 -74 -68 -148 -36 -93 -61 -142 -79 -156 -14 -11 -122
-83 -240 -160 -118 -77 -253 -165 -300 -196 l-85 -57 -3 -195 c-2 -154 1 -200
11 -214 13 -18 32 -19 306 -20 l291 0 0 -108 0 -109 -114 -282 c-118 -292
-189 -467 -282 -694 l-54 -133 0 -234 c0 -200 2 -237 16 -250 12 -13 39 -16
130 -16 63 0 114 -2 114 -5 0 -2 -14 -39 -31 -82 -17 -43 -32 -82 -34 -88 -10
-42 -16 -45 -90 -45 -54 0 -78 -4 -89 -16 -14 -13 -16 -55 -16 -304 l0 -288
-25 -6 c-37 -9 -96 -65 -116 -111 -25 -55 -27 -255 -3 -279 14 -14 136 -16
1194 -16 1072 0 1180 1 1195 16 23 24 20 225 -5 280 -19 45 -79 101 -115 110
l-25 6 0 288 c0 249 -2 291 -16 304 -11 12 -35 16 -89 16 l-73 0 -27 73 c-15
39 -33 86 -40 102 -39 90 -41 117 -40 593 0 255 -2 468 -6 473 -3 6 -10 9 -15
8 -25 -4 -29 5 -28 63 1 35 2 68 3 73 1 6 57 10 150 10 113 0 153 4 165 15 16
13 17 56 13 569 -4 582 -4 583 -51 732 -44 143 -154 325 -263 435 -113 114
-174 160 -303 224 -106 53 -110 55 -195 79 -95 26 -111 29 -180 36 -127 13
-146 13 -166 -4z"/>
</g>
</svg>
